<mxfile host="Electron" modified="2023-12-30T13:29:20.865Z" agent="Mozilla/5.0 (Windows NT 10.0; Win64; x64) AppleWebKit/537.36 (KHTML, like Gecko) draw.io/22.1.2 Chrome/114.0.5735.289 Electron/25.9.4 Safari/537.36" etag="tuarXmByGyJaqQxgyekG" version="22.1.2" type="device">
  <diagram id="C5RBs43oDa-KdzZeNtuy" name="Page-1">
    <mxGraphModel dx="2261" dy="836" grid="1" gridSize="10" guides="1" tooltips="1" connect="1" arrows="1" fold="1" page="1" pageScale="1" pageWidth="827" pageHeight="1169" math="0" shadow="0">
      <root>
        <mxCell id="WIyWlLk6GJQsqaUBKTNV-0" />
        <mxCell id="WIyWlLk6GJQsqaUBKTNV-1" parent="WIyWlLk6GJQsqaUBKTNV-0" />
        <mxCell id="DGWfQ8jK7_C10P4yt4hg-0" value="EquationApplication" style="swimlane;fontStyle=1;align=center;verticalAlign=top;childLayout=stackLayout;horizontal=1;startSize=26;horizontalStack=0;resizeParent=1;resizeParentMax=0;resizeLast=0;collapsible=1;marginBottom=0;whiteSpace=wrap;html=1;fontSize=16;fillColor=#f8cecc;strokeColor=#b85450;" vertex="1" parent="WIyWlLk6GJQsqaUBKTNV-1">
          <mxGeometry x="180" y="220" width="260" height="210" as="geometry" />
        </mxCell>
        <mxCell id="DGWfQ8jK7_C10P4yt4hg-1" value="&lt;div style=&quot;font-size: 12px;&quot;&gt;-NUM QUESTIONS: int&lt;/div&gt;&lt;div style=&quot;font-size: 12px;&quot;&gt;-equationCollection: 方程集合&lt;/div&gt;&lt;div style=&quot;font-size: 12px;&quot;&gt;-questionVBox: VBox&lt;/div&gt;&lt;div style=&quot;font-size: 12px;&quot;&gt;-answerFields: TextFieldl[]&lt;/div&gt;&lt;div style=&quot;font-size: 12px;&quot;&gt;-accuracyChart: PieChart&lt;/div&gt;" style="text;strokeColor=#b85450;fillColor=#f8cecc;align=left;verticalAlign=top;spacingLeft=4;spacingRight=4;overflow=hidden;rotatable=0;points=[[0,0.5],[1,0.5]];portConstraint=eastwest;whiteSpace=wrap;html=1;fontSize=12;" vertex="1" parent="DGWfQ8jK7_C10P4yt4hg-0">
          <mxGeometry y="26" width="260" height="84" as="geometry" />
        </mxCell>
        <mxCell id="DGWfQ8jK7_C10P4yt4hg-2" value="" style="line;strokeWidth=1;fillColor=#f8cecc;align=left;verticalAlign=middle;spacingTop=-1;spacingLeft=3;spacingRight=3;rotatable=0;labelPosition=right;points=[];portConstraint=eastwest;strokeColor=#b85450;" vertex="1" parent="DGWfQ8jK7_C10P4yt4hg-0">
          <mxGeometry y="110" width="260" height="8" as="geometry" />
        </mxCell>
        <mxCell id="DGWfQ8jK7_C10P4yt4hg-3" value="&lt;div&gt;+start(stage: Stage)::void&lt;/div&gt;&lt;div&gt;+initializeUl()::void&lt;/div&gt;&lt;div&gt;+loadAndDisplayDatabaseQuestions()::void&lt;/div&gt;&lt;div&gt;+saveEquationsToDatabase()::void&lt;/div&gt;&lt;div&gt;+checkAnswersAndDisplayChart()::void&lt;/div&gt;&lt;div&gt;+displayAccuracyChart(correctCount: int)::void&lt;/div&gt;" style="text;strokeColor=#b85450;fillColor=#f8cecc;align=left;verticalAlign=top;spacingLeft=4;spacingRight=4;overflow=hidden;rotatable=0;points=[[0,0.5],[1,0.5]];portConstraint=eastwest;whiteSpace=wrap;html=1;" vertex="1" parent="DGWfQ8jK7_C10P4yt4hg-0">
          <mxGeometry y="118" width="260" height="92" as="geometry" />
        </mxCell>
        <mxCell id="DGWfQ8jK7_C10P4yt4hg-4" value="AbstractEquation" style="swimlane;fontStyle=1;align=center;verticalAlign=top;childLayout=stackLayout;horizontal=1;startSize=26;horizontalStack=0;resizeParent=1;resizeParentMax=0;resizeLast=0;collapsible=1;marginBottom=0;whiteSpace=wrap;html=1;fontSize=16;fillColor=#ffe6cc;strokeColor=#d79b00;" vertex="1" parent="WIyWlLk6GJQsqaUBKTNV-1">
          <mxGeometry x="40" y="640" width="260" height="170" as="geometry" />
        </mxCell>
        <mxCell id="DGWfQ8jK7_C10P4yt4hg-5" value="&lt;div style=&quot;font-size: 12px;&quot;&gt;&lt;div&gt;- operand1: short&lt;/div&gt;&lt;div&gt;- operand2: short&lt;/div&gt;&lt;/div&gt;" style="text;strokeColor=#d79b00;fillColor=#ffe6cc;align=left;verticalAlign=top;spacingLeft=4;spacingRight=4;overflow=hidden;rotatable=0;points=[[0,0.5],[1,0.5]];portConstraint=eastwest;whiteSpace=wrap;html=1;fontSize=12;" vertex="1" parent="DGWfQ8jK7_C10P4yt4hg-4">
          <mxGeometry y="26" width="260" height="44" as="geometry" />
        </mxCell>
        <mxCell id="DGWfQ8jK7_C10P4yt4hg-6" value="" style="line;strokeWidth=1;fillColor=#ffe6cc;align=left;verticalAlign=middle;spacingTop=-1;spacingLeft=3;spacingRight=3;rotatable=0;labelPosition=right;points=[];portConstraint=eastwest;strokeColor=#d79b00;" vertex="1" parent="DGWfQ8jK7_C10P4yt4hg-4">
          <mxGeometry y="70" width="260" height="8" as="geometry" />
        </mxCell>
        <mxCell id="DGWfQ8jK7_C10P4yt4hg-7" value="&lt;div&gt;+抽象方程(operand1:short，operand2:short)&lt;/div&gt;&lt;div&gt;+getOperand1()::short&lt;/div&gt;&lt;div&gt;+getOperand2()::short&lt;/div&gt;&lt;div&gt;+getOperator()::char&lt;/div&gt;&lt;div&gt;+calculate()::int&lt;/div&gt;&lt;div&gt;+toString()::String&lt;/div&gt;" style="text;strokeColor=#d79b00;fillColor=#ffe6cc;align=left;verticalAlign=top;spacingLeft=4;spacingRight=4;overflow=hidden;rotatable=0;points=[[0,0.5],[1,0.5]];portConstraint=eastwest;whiteSpace=wrap;html=1;" vertex="1" parent="DGWfQ8jK7_C10P4yt4hg-4">
          <mxGeometry y="78" width="260" height="92" as="geometry" />
        </mxCell>
        <mxCell id="DGWfQ8jK7_C10P4yt4hg-8" value="EquationCollection" style="swimlane;fontStyle=1;align=center;verticalAlign=top;childLayout=stackLayout;horizontal=1;startSize=26;horizontalStack=0;resizeParent=1;resizeParentMax=0;resizeLast=0;collapsible=1;marginBottom=0;whiteSpace=wrap;html=1;fontSize=16;fillColor=#fff2cc;strokeColor=#d6b656;" vertex="1" parent="WIyWlLk6GJQsqaUBKTNV-1">
          <mxGeometry x="510" y="480" width="270" height="180" as="geometry" />
        </mxCell>
        <mxCell id="DGWfQ8jK7_C10P4yt4hg-9" value="&lt;div style=&quot;&quot;&gt;- equationSet: Set&amp;lt;方程接口&amp;gt;&lt;br&gt;&lt;/div&gt;" style="text;strokeColor=#d6b656;fillColor=#fff2cc;align=left;verticalAlign=top;spacingLeft=4;spacingRight=4;overflow=hidden;rotatable=0;points=[[0,0.5],[1,0.5]];portConstraint=eastwest;whiteSpace=wrap;html=1;fontSize=12;" vertex="1" parent="DGWfQ8jK7_C10P4yt4hg-8">
          <mxGeometry y="26" width="270" height="34" as="geometry" />
        </mxCell>
        <mxCell id="DGWfQ8jK7_C10P4yt4hg-10" value="" style="line;strokeWidth=1;fillColor=#fff2cc;align=left;verticalAlign=middle;spacingTop=-1;spacingLeft=3;spacingRight=3;rotatable=0;labelPosition=right;points=[];portConstraint=eastwest;strokeColor=#d6b656;" vertex="1" parent="DGWfQ8jK7_C10P4yt4hg-8">
          <mxGeometry y="60" width="270" height="8" as="geometry" />
        </mxCell>
        <mxCell id="DGWfQ8jK7_C10P4yt4hg-11" value="+generate(n: int, checker: 方程检查器) : void&lt;br&gt;+clear() : void&lt;br&gt;+addAll(equations: Collection&amp;lt;方程接口&amp;gt;) : void&lt;br&gt;+getEquationsList() : List&amp;lt;方程接口&amp;gt;&lt;br&gt;+isEmpty() : boolean&lt;br&gt;+iterator() : Iterator&amp;lt;方程接口&amp;gt;" style="text;strokeColor=#d6b656;fillColor=#fff2cc;align=left;verticalAlign=top;spacingLeft=4;spacingRight=4;overflow=hidden;rotatable=0;points=[[0,0.5],[1,0.5]];portConstraint=eastwest;whiteSpace=wrap;html=1;" vertex="1" parent="DGWfQ8jK7_C10P4yt4hg-8">
          <mxGeometry y="68" width="270" height="112" as="geometry" />
        </mxCell>
        <mxCell id="DGWfQ8jK7_C10P4yt4hg-28" style="edgeStyle=orthogonalEdgeStyle;rounded=0;orthogonalLoop=1;jettySize=auto;html=1;exitX=0.5;exitY=0;exitDx=0;exitDy=0;entryX=1;entryY=0.5;entryDx=0;entryDy=0;endArrow=block;endFill=0;" edge="1" parent="WIyWlLk6GJQsqaUBKTNV-1" source="DGWfQ8jK7_C10P4yt4hg-12" target="DGWfQ8jK7_C10P4yt4hg-3">
          <mxGeometry relative="1" as="geometry" />
        </mxCell>
        <mxCell id="DGWfQ8jK7_C10P4yt4hg-12" value="MySQLUtil" style="swimlane;fontStyle=1;align=center;verticalAlign=top;childLayout=stackLayout;horizontal=1;startSize=26;horizontalStack=0;resizeParent=1;resizeParentMax=0;resizeLast=0;collapsible=1;marginBottom=0;whiteSpace=wrap;html=1;fontSize=16;fillColor=#e1d5e7;strokeColor=#9673a6;" vertex="1" parent="WIyWlLk6GJQsqaUBKTNV-1">
          <mxGeometry x="-60" y="480" width="500" height="150" as="geometry" />
        </mxCell>
        <mxCell id="DGWfQ8jK7_C10P4yt4hg-13" value="&lt;div style=&quot;&quot;&gt;&lt;br&gt;&lt;/div&gt;" style="text;strokeColor=#9673a6;fillColor=#e1d5e7;align=left;verticalAlign=top;spacingLeft=4;spacingRight=4;overflow=hidden;rotatable=0;points=[[0,0.5],[1,0.5]];portConstraint=eastwest;whiteSpace=wrap;html=1;fontSize=12;" vertex="1" parent="DGWfQ8jK7_C10P4yt4hg-12">
          <mxGeometry y="26" width="500" height="14" as="geometry" />
        </mxCell>
        <mxCell id="DGWfQ8jK7_C10P4yt4hg-14" value="" style="line;strokeWidth=1;fillColor=#e1d5e7;align=left;verticalAlign=middle;spacingTop=-1;spacingLeft=3;spacingRight=3;rotatable=0;labelPosition=right;points=[];portConstraint=eastwest;strokeColor=#9673a6;" vertex="1" parent="DGWfQ8jK7_C10P4yt4hg-12">
          <mxGeometry y="40" width="500" height="8" as="geometry" />
        </mxCell>
        <mxCell id="DGWfQ8jK7_C10P4yt4hg-15" value="&lt;div&gt;+getConnection() : Connection&lt;/div&gt;&lt;div&gt;+selectAllData(connection: Connection) : void&lt;/div&gt;&lt;div&gt;+truncateTable(connection: Connection) : void&lt;/div&gt;&lt;div&gt;+insertEquation(connection: Connection, opNum1: int, operation: String, opNum2: int) : void&lt;/div&gt;&lt;div&gt;+getLatestEquations(connection: Connection, numOuestions: int) : List&amp;lt;方程接口&amp;gt;&lt;/div&gt;&lt;div&gt;+createEquation(operator: char, operand1: short, operand2: short) : 方程接口&lt;/div&gt;&lt;div&gt;&lt;br&gt;&lt;/div&gt;" style="text;strokeColor=#9673a6;fillColor=#e1d5e7;align=left;verticalAlign=top;spacingLeft=4;spacingRight=4;overflow=hidden;rotatable=0;points=[[0,0.5],[1,0.5]];portConstraint=eastwest;whiteSpace=wrap;html=1;" vertex="1" parent="DGWfQ8jK7_C10P4yt4hg-12">
          <mxGeometry y="48" width="500" height="102" as="geometry" />
        </mxCell>
        <mxCell id="DGWfQ8jK7_C10P4yt4hg-30" style="edgeStyle=orthogonalEdgeStyle;rounded=0;orthogonalLoop=1;jettySize=auto;html=1;exitX=0.75;exitY=0;exitDx=0;exitDy=0;entryX=1;entryY=0.5;entryDx=0;entryDy=0;" edge="1" parent="WIyWlLk6GJQsqaUBKTNV-1" source="DGWfQ8jK7_C10P4yt4hg-16" target="DGWfQ8jK7_C10P4yt4hg-3">
          <mxGeometry relative="1" as="geometry" />
        </mxCell>
        <mxCell id="DGWfQ8jK7_C10P4yt4hg-16" value="EquationFactory" style="swimlane;fontStyle=1;align=center;verticalAlign=top;childLayout=stackLayout;horizontal=1;startSize=26;horizontalStack=0;resizeParent=1;resizeParentMax=0;resizeLast=0;collapsible=1;marginBottom=0;whiteSpace=wrap;html=1;fontSize=16;fillColor=#dae8fc;strokeColor=#6c8ebf;" vertex="1" parent="WIyWlLk6GJQsqaUBKTNV-1">
          <mxGeometry x="630" y="700" width="270" height="80" as="geometry" />
        </mxCell>
        <mxCell id="DGWfQ8jK7_C10P4yt4hg-17" value="&lt;div style=&quot;&quot;&gt;&lt;br&gt;&lt;/div&gt;" style="text;strokeColor=#6c8ebf;fillColor=#dae8fc;align=left;verticalAlign=top;spacingLeft=4;spacingRight=4;overflow=hidden;rotatable=0;points=[[0,0.5],[1,0.5]];portConstraint=eastwest;whiteSpace=wrap;html=1;fontSize=12;" vertex="1" parent="DGWfQ8jK7_C10P4yt4hg-16">
          <mxGeometry y="26" width="270" height="14" as="geometry" />
        </mxCell>
        <mxCell id="DGWfQ8jK7_C10P4yt4hg-18" value="" style="line;strokeWidth=1;fillColor=#dae8fc;align=left;verticalAlign=middle;spacingTop=-1;spacingLeft=3;spacingRight=3;rotatable=0;labelPosition=right;points=[];portConstraint=eastwest;strokeColor=#6c8ebf;" vertex="1" parent="DGWfQ8jK7_C10P4yt4hg-16">
          <mxGeometry y="40" width="270" height="8" as="geometry" />
        </mxCell>
        <mxCell id="DGWfQ8jK7_C10P4yt4hg-19" value="&lt;div&gt;+getEquationRandom() : 方程接口&lt;/div&gt;&lt;div&gt;&lt;br&gt;&lt;/div&gt;" style="text;strokeColor=#6c8ebf;fillColor=#dae8fc;align=left;verticalAlign=top;spacingLeft=4;spacingRight=4;overflow=hidden;rotatable=0;points=[[0,0.5],[1,0.5]];portConstraint=eastwest;whiteSpace=wrap;html=1;" vertex="1" parent="DGWfQ8jK7_C10P4yt4hg-16">
          <mxGeometry y="48" width="270" height="32" as="geometry" />
        </mxCell>
        <mxCell id="DGWfQ8jK7_C10P4yt4hg-29" style="edgeStyle=orthogonalEdgeStyle;rounded=0;orthogonalLoop=1;jettySize=auto;html=1;exitX=0;exitY=0.5;exitDx=0;exitDy=0;entryX=0;entryY=0.5;entryDx=0;entryDy=0;endArrow=block;endFill=0;" edge="1" parent="WIyWlLk6GJQsqaUBKTNV-1" source="DGWfQ8jK7_C10P4yt4hg-24" target="DGWfQ8jK7_C10P4yt4hg-7">
          <mxGeometry relative="1" as="geometry" />
        </mxCell>
        <mxCell id="DGWfQ8jK7_C10P4yt4hg-24" value="&lt;b style=&quot;font-size: 16px;&quot;&gt;&lt;font style=&quot;font-size: 16px;&quot;&gt;«interface»&lt;br&gt;&lt;/font&gt;IEquation&lt;/b&gt;" style="html=1;whiteSpace=wrap;fillColor=#f5f5f5;fontColor=#333333;strokeColor=#666666;" vertex="1" parent="WIyWlLk6GJQsqaUBKTNV-1">
          <mxGeometry x="359" y="820" width="110" height="50" as="geometry" />
        </mxCell>
        <mxCell id="DGWfQ8jK7_C10P4yt4hg-25" style="edgeStyle=orthogonalEdgeStyle;rounded=0;orthogonalLoop=1;jettySize=auto;html=1;exitX=0;exitY=0.5;exitDx=0;exitDy=0;entryX=1;entryY=0.5;entryDx=0;entryDy=0;endArrow=block;endFill=0;" edge="1" parent="WIyWlLk6GJQsqaUBKTNV-1" source="DGWfQ8jK7_C10P4yt4hg-19" target="DGWfQ8jK7_C10P4yt4hg-24">
          <mxGeometry relative="1" as="geometry" />
        </mxCell>
        <mxCell id="DGWfQ8jK7_C10P4yt4hg-26" style="edgeStyle=orthogonalEdgeStyle;rounded=0;orthogonalLoop=1;jettySize=auto;html=1;exitX=0;exitY=0.5;exitDx=0;exitDy=0;entryX=0.5;entryY=0;entryDx=0;entryDy=0;endArrow=block;endFill=0;" edge="1" parent="WIyWlLk6GJQsqaUBKTNV-1" source="DGWfQ8jK7_C10P4yt4hg-11" target="DGWfQ8jK7_C10P4yt4hg-24">
          <mxGeometry relative="1" as="geometry">
            <Array as="points">
              <mxPoint x="490" y="604" />
              <mxPoint x="490" y="790" />
              <mxPoint x="414" y="790" />
            </Array>
          </mxGeometry>
        </mxCell>
        <mxCell id="DGWfQ8jK7_C10P4yt4hg-27" style="edgeStyle=orthogonalEdgeStyle;rounded=0;orthogonalLoop=1;jettySize=auto;html=1;exitX=1;exitY=0.5;exitDx=0;exitDy=0;entryX=1;entryY=0.5;entryDx=0;entryDy=0;endArrow=block;endFill=0;" edge="1" parent="WIyWlLk6GJQsqaUBKTNV-1" source="DGWfQ8jK7_C10P4yt4hg-11" target="DGWfQ8jK7_C10P4yt4hg-3">
          <mxGeometry relative="1" as="geometry" />
        </mxCell>
        <mxCell id="DGWfQ8jK7_C10P4yt4hg-31" value="包含" style="rounded=0;whiteSpace=wrap;html=1;fontSize=17;fillColor=none;strokeColor=none;" vertex="1" parent="WIyWlLk6GJQsqaUBKTNV-1">
          <mxGeometry x="390" y="760" width="120" height="30" as="geometry" />
        </mxCell>
        <mxCell id="DGWfQ8jK7_C10P4yt4hg-32" value="创建" style="rounded=0;whiteSpace=wrap;html=1;fontSize=17;fillColor=none;strokeColor=none;" vertex="1" parent="WIyWlLk6GJQsqaUBKTNV-1">
          <mxGeometry x="530" y="770" width="120" height="30" as="geometry" />
        </mxCell>
        <mxCell id="DGWfQ8jK7_C10P4yt4hg-33" value="包含" style="rounded=0;whiteSpace=wrap;html=1;fontSize=17;fillColor=none;strokeColor=none;" vertex="1" parent="WIyWlLk6GJQsqaUBKTNV-1">
          <mxGeometry x="720" y="440" width="120" height="30" as="geometry" />
        </mxCell>
        <mxCell id="DGWfQ8jK7_C10P4yt4hg-34" value="使用" style="rounded=0;whiteSpace=wrap;html=1;fontSize=17;fillColor=none;strokeColor=none;" vertex="1" parent="WIyWlLk6GJQsqaUBKTNV-1">
          <mxGeometry x="250" y="450" width="120" height="30" as="geometry" />
        </mxCell>
      </root>
    </mxGraphModel>
  </diagram>
</mxfile>
